<!DOCTYPE svg PUBLIC "-//W3C//DTD SVG 20010904//EN" "http://www.w3.org/TR/2001/REC-SVG-20010904/DTD/svg10.dtd">
<svg version="1.0" xmlns="http://www.w3.org/2000/svg" width="256px" height="256px" viewBox="0 0 2560 2560" preserveAspectRatio="xMidYMid meet">
<g id="layer101" fill="#1d74a5" stroke="none">
<path d="M465 2449 c-176 -29 -296 -133 -341 -296 -18 -64 -19 -115 -19 -873 0 -758 1 -809 19 -873 37 -136 130 -233 267 -280 63 -22 72 -22 849 -25 514 -2 809 1 855 8 91 13 201 67 250 121 49 54 92 148 104 229 14 87 15 1551 1 1640 -14 86 -69 198 -121 245 -54 49 -148 92 -229 104 -79 13 -1560 13 -1635 0z"/>
</g>
<g id="layer102" fill="#f7f7f7" stroke="none">
<path d="M465 2449 c-176 -29 -296 -133 -341 -296 -18 -64 -19 -115 -19 -873 0 -758 1 -809 19 -873 37 -136 130 -233 267 -280 63 -22 72 -22 849 -25 514 -2 809 1 855 8 91 13 201 67 250 121 49 54 92 148 104 229 14 87 15 1551 1 1640 -14 86 -69 198 -121 245 -54 49 -148 92 -229 104 -79 13 -1560 13 -1635 0z m1626 -127 c123 -41 193 -112 232 -236 22 -71 22 -74 22 -806 0 -732 0 -735 -22 -806 -39 -124 -109 -195 -232 -236 -65 -22 -74 -23 -765 -26 -755 -3 -799 -1 -902 47 -113 53 -182 153 -204 296 -7 47 -10 303 -8 770 3 647 5 704 22 755 50 149 164 240 331 263 17 3 352 4 745 3 711 -1 715 -1 781 -24z"/>
<path d="M948 2035 c-118 -38 -238 -159 -273 -277 -28 -95 -14 -255 28 -312 14 -19 16 -19 61 8 36 21 46 32 40 44 -40 94 -40 183 2 269 87 182 333 225 477 85 21 -20 68 -88 104 -150 52 -89 64 -118 59 -138 -4 -15 -44 -63 -89 -108 -124 -123 -248 -176 -414 -176 l-82 0 -17 -52 c-25 -81 -30 -230 -10 -308 28 -112 81 -206 160 -285 152 -150 357 -207 560 -155 108 27 190 74 272 155 78 76 133 170 159 272 19 73 19 222 0 293 -43 164 -156 302 -311 383 -106 54 -124 72 -199 201 -76 131 -121 178 -213 223 -68 34 -83 38 -171 40 -65 2 -111 -2 -143 -12z m564 -1012 c23 -26 31 -60 19 -81 -8 -16 3 -38 64 -127 l75 -108 -38 -23 c-20 -13 -41 -24 -45 -24 -5 0 -32 51 -61 113 -48 100 -57 113 -88 125 -83 30 -66 142 22 142 23 0 43 -7 52 -17z"/>
</g>


</svg>